<svg xmlns="http://www.w3.org/2000/svg" xmlns:xlink="http://www.w3.org/1999/xlink" width="122.265" height="40.054" viewBox="0 0 122.265 40.054">
  <defs>
    <linearGradient id="linear-gradient" x1="0.5" x2="0.5" y2="1" gradientUnits="objectBoundingBox">
      <stop offset="0" stop-color="#8f140c"/>
      <stop offset="1" stop-color="#cd1214"/>
    </linearGradient>
    <linearGradient id="linear-gradient-2" x1="0.5" x2="0.5" y2="1" gradientUnits="objectBoundingBox">
      <stop offset="0" stop-color="#580200"/>
      <stop offset="1" stop-color="#9e0203"/>
    </linearGradient>
    <linearGradient id="linear-gradient-3" x1="0.5" x2="0.5" y2="1" gradientUnits="objectBoundingBox">
      <stop offset="0" stop-color="#9f0102"/>
      <stop offset="1" stop-color="#5b0000"/>
    </linearGradient>
    <linearGradient id="linear-gradient-4" x1="0.5" x2="0.5" y2="1" gradientUnits="objectBoundingBox">
      <stop offset="0" stop-color="#d50a16"/>
      <stop offset="1" stop-color="#b4080b"/>
    </linearGradient>
    <linearGradient id="linear-gradient-5" x1="0.588" y1="0.396" x2="0.831" y2="0.691" gradientUnits="objectBoundingBox">
      <stop offset="0" stop-color="#ea1c25"/>
      <stop offset="1" stop-color="#d20911"/>
    </linearGradient>
    <linearGradient id="linear-gradient-6" y1="0.058" x2="1" y2="0.5" gradientUnits="objectBoundingBox">
      <stop offset="0" stop-color="#9f1410"/>
      <stop offset="1" stop-color="#cf0a10"/>
    </linearGradient>
    <linearGradient id="linear-gradient-7" x1="0.5" x2="0.5" y2="1" gradientUnits="objectBoundingBox">
      <stop offset="0" stop-color="#9e1610"/>
      <stop offset="1" stop-color="#9f1713"/>
    </linearGradient>
    <linearGradient id="linear-gradient-8" x1="0.5" x2="0.5" y2="1" gradientUnits="objectBoundingBox">
      <stop offset="0" stop-color="#c70508"/>
      <stop offset="1" stop-color="#c80b10"/>
    </linearGradient>
    <linearGradient id="linear-gradient-9" x1="0.5" x2="0.5" y2="1" gradientUnits="objectBoundingBox">
      <stop offset="0" stop-color="#9b0f06"/>
      <stop offset="1" stop-color="#e00616"/>
    </linearGradient>
    <linearGradient id="linear-gradient-10" x1="0.265" y1="0.329" x2="0.5" y2="0.671" gradientUnits="objectBoundingBox">
      <stop offset="0" stop-color="#c41189"/>
      <stop offset="1" stop-color="#900e90"/>
    </linearGradient>
    <linearGradient id="linear-gradient-11" x1="0.356" y1="0.151" x2="0.5" y2="0.813" gradientUnits="objectBoundingBox">
      <stop offset="0" stop-color="#9f219d"/>
      <stop offset="1" stop-color="#df0377"/>
    </linearGradient>
    <linearGradient id="linear-gradient-12" x1="0.5" x2="0.5" y2="1" gradientUnits="objectBoundingBox">
      <stop offset="0" stop-color="#900e90"/>
      <stop offset="1" stop-color="#b71790"/>
    </linearGradient>
    <linearGradient id="linear-gradient-13" x1="0.915" y1="0.831" x2="0.042" y2="0.075" gradientUnits="objectBoundingBox">
      <stop offset="0" stop-color="#9f229e"/>
      <stop offset="1" stop-color="#c90d84"/>
    </linearGradient>
    <linearGradient id="linear-gradient-14" x1="0.167" y1="0.414" x2="1.631" y2="0.804" gradientUnits="objectBoundingBox">
      <stop offset="0" stop-color="#de0377"/>
      <stop offset="1" stop-color="#a51f9a"/>
    </linearGradient>
    <linearGradient id="linear-gradient-15" x1="0.588" y1="0.396" x2="0.89" y2="0.791" gradientUnits="objectBoundingBox">
      <stop offset="0" stop-color="#df0377"/>
      <stop offset="1" stop-color="#b71790"/>
    </linearGradient>
    <linearGradient id="linear-gradient-16" y1="0.058" x2="1" y2="0.5" gradientUnits="objectBoundingBox">
      <stop offset="0" stop-color="#bb148c"/>
      <stop offset="1" stop-color="#e00377"/>
    </linearGradient>
    <linearGradient id="linear-gradient-17" x1="0.446" y1="0.063" x2="0.532" y2="1" gradientUnits="objectBoundingBox">
      <stop offset="0" stop-color="#b6168f"/>
      <stop offset="1" stop-color="#df0377"/>
    </linearGradient>
    <linearGradient id="linear-gradient-18" x1="0.5" x2="0.5" y2="1" gradientUnits="objectBoundingBox">
      <stop offset="0" stop-color="#9f219d"/>
      <stop offset="1" stop-color="#dd0478"/>
    </linearGradient>
    <linearGradient id="linear-gradient-19" x1="0.5" x2="0.438" y2="1" gradientUnits="objectBoundingBox">
      <stop offset="0" stop-color="#b11a94"/>
      <stop offset="1" stop-color="#de0478"/>
    </linearGradient>
  </defs>
  <g id="logo" transform="translate(0.005 -0.004)">
    <g id="组_3" data-name="组 3" transform="translate(-0.005 0.004)">
      <g id="组_2" data-name="组 2" transform="translate(0 0)">
        <g id="组_1" data-name="组 1">
          <path id="路径_1" data-name="路径 1" d="M1.544,0,0,6.437l20.45,5.532Z" transform="translate(9.771 0.201) rotate(1.3)" fill="#690804" fill-rule="evenodd"/>
          <path id="路径_2" data-name="路径 2" d="M1.381,0,0,5.966,9.98,17.271,21.832,5.532Z" transform="translate(8.244 6.605) rotate(1.3)" fill-rule="evenodd" fill="url(#linear-gradient)"/>
          <path id="路径_3" data-name="路径 3" d="M2.285,0,0,9.466,3.141,20.193l9.125-8.888Z" transform="translate(5.824 12.518) rotate(1.3)" fill-rule="evenodd" fill="url(#linear-gradient-2)"/>
          <path id="路径_4" data-name="路径 4" d="M4.374,0,17.55,15.481,0,4.26Z" transform="translate(13.457 23.999) rotate(1.3)" fill-rule="evenodd" fill="url(#linear-gradient-3)"/>
          <path id="路径_5" data-name="路径 5" d="M22.3,11.221,4.751,0,0,4.628Z" transform="translate(8.61 28.15) rotate(1.3)" fill-rule="evenodd" fill="url(#linear-gradient-4)"/>
          <path id="路径_6" data-name="路径 6" d="M10.412,0,8.869,6.437,0,4.062Z" transform="translate(0.905 0) rotate(1.3)" fill-rule="evenodd" fill="url(#linear-gradient-5)"/>
          <path id="路径_7" data-name="路径 7" d="M0,0,7.487,8.341,8.869,2.375Z" transform="translate(0.813 4.061) rotate(1.3)" fill-rule="evenodd" fill="url(#linear-gradient-6)"/>
          <path id="路径_8" data-name="路径 8" d="M7.487,8.341,5.2,17.807,0,0Z" transform="translate(0.813 4.061) rotate(1.3)" fill-rule="evenodd" fill="url(#linear-gradient-7)"/>
          <path id="路径_9" data-name="路径 9" d="M0,0,.819,35.813,5.2,17.807Z" transform="translate(0.813 4.061) rotate(1.3)" fill-rule="evenodd" fill="url(#linear-gradient-8)"/>
          <path id="路径_10" data-name="路径 10" d="M0,18.006,4.383,0,7.524,10.727Z" transform="translate(1.227 21.882) rotate(1.3)" fill-rule="evenodd" fill="url(#linear-gradient-9)"/>
          <path id="路径_11" data-name="路径 11" d="M1.544,0,0,6.437l20.45,5.532Z" transform="translate(9.771 0.201) rotate(1.3)" fill-rule="evenodd" fill="url(#linear-gradient-10)"/>
          <path id="路径_12" data-name="路径 12" d="M1.381,0,0,5.966,9.98,17.271,21.832,5.532Z" transform="translate(8.244 6.605) rotate(1.3)" fill-rule="evenodd" fill="url(#linear-gradient-11)"/>
          <path id="路径_13" data-name="路径 13" d="M2.285,0,0,9.466,3.141,20.193l9.125-8.888Z" transform="translate(5.824 12.518) rotate(1.3)" fill-rule="evenodd" fill="url(#linear-gradient-12)"/>
          <path id="路径_14" data-name="路径 14" d="M4.374,0,17.55,15.481,0,4.26Z" transform="translate(13.457 23.999) rotate(1.3)" fill-rule="evenodd" fill="url(#linear-gradient-13)"/>
          <path id="路径_15" data-name="路径 15" d="M22.3,11.221,4.751,0,0,4.628Z" transform="translate(8.61 28.15) rotate(1.3)" fill-rule="evenodd" fill="url(#linear-gradient-14)"/>
          <path id="路径_16" data-name="路径 16" d="M10.412,0,8.869,6.437,0,4.062Z" transform="translate(0.905 0) rotate(1.3)" fill-rule="evenodd" fill="url(#linear-gradient-15)"/>
          <path id="路径_17" data-name="路径 17" d="M0,0,7.487,8.341,8.869,2.375Z" transform="translate(0.813 4.061) rotate(1.3)" fill-rule="evenodd" fill="url(#linear-gradient-16)"/>
          <path id="路径_18" data-name="路径 18" d="M7.487,8.341,5.2,17.807,0,0Z" transform="translate(0.813 4.061) rotate(1.3)" fill-rule="evenodd" fill="url(#linear-gradient-17)"/>
          <path id="路径_19" data-name="路径 19" d="M0,0,.819,35.813,5.2,17.807Z" transform="translate(0.813 4.061) rotate(1.3)" fill-rule="evenodd" fill="url(#linear-gradient-18)"/>
          <path id="路径_20" data-name="路径 20" d="M0,18.006,4.383,0,7.524,10.727Z" transform="translate(1.227 21.882) rotate(1.3)" fill-rule="evenodd" fill="url(#linear-gradient-19)"/>
        </g>
        <path id="路径_21" data-name="路径 21" d="M80.555,38.469v-8.42l5.4,8.42H93L86.155,29.5a6.028,6.028,0,0,0,3.536-2.1,6.452,6.452,0,0,0,1.2-4.051,7.518,7.518,0,0,0-.447-2.613,6,6,0,0,0-3.565-3.615,8.606,8.606,0,0,0-3.175-.537H74.9V38.469h5.658Zm1.068-12.107H80.555v-5.4h1.068a4.108,4.108,0,0,1,2.569.7,2.388,2.388,0,0,1,.895,2,2.388,2.388,0,0,1-.895,2,4.108,4.108,0,0,1-2.569.7ZM104.034,39.08q4.821,0,7.145-2.352t2.324-7.462V16.577h-5.629v11.9q0,.958-.073,1.96a5.176,5.176,0,0,1-.447,1.815,3.142,3.142,0,0,1-1.14,1.321,3.933,3.933,0,0,1-2.18.508,4.005,4.005,0,0,1-2.194-.508,3.008,3.008,0,0,1-1.14-1.321,5.419,5.419,0,0,1-.433-1.815q-.072-1-.072-1.96v-11.9H94.537V29.265q0,5.11,2.338,7.461t7.159,2.352Zm22.5-.61a11.055,11.055,0,0,0,3.118-.407A6.4,6.4,0,0,0,132,36.843a5.54,5.54,0,0,0,1.5-2,6.605,6.605,0,0,0,.534-2.729,7.209,7.209,0,0,0-.231-1.858,4.4,4.4,0,0,0-.765-1.568,4.485,4.485,0,0,0-1.385-1.176,6.813,6.813,0,0,0-2.064-.711,4.986,4.986,0,0,0,1.8-1.844,5.7,5.7,0,0,0,.592-2.744,5.436,5.436,0,0,0-1.559-4.181,6.463,6.463,0,0,0-4.561-1.451h-8.429V38.469Zm-2.4-13.3H123.1V20.932h1.04q2.656,0,2.655,2.12t-2.655,2.12Zm.2,8.885H123.1V29.411h1.241a6.285,6.285,0,0,1,3.06.551,2.16,2.16,0,0,1,0,3.542,6.277,6.277,0,0,1-3.06.552ZM146.4,38.469V27.959l7.968-11.382h-6.755L143.6,22.559l-4.042-5.982h-6.755l7.938,11.382V38.47H146.4Z" transform="translate(-32.104 -7.108)" fill="#fff"/>
      </g>
    </g>
  </g>
</svg>
